<?xml version="1.0" standalone="yes"?><svg xmlns="http://www.w3.org/2000/svg" xmlns:xlink="http://www.w3.org/1999/xlink" id="svg" version="1.1" width="400" height="582.4561403508771" viewBox="0, 0, 400,582.4561403508771" style="zoom: 1;"><g id="svgg"><path d="M57.524,27.652 C40.916,29.375 32.259,43.335 36.330,61.829 C41.035,83.206 73.175,85.878 83.657,65.764 C93.733,46.430 79.307,25.391 57.524,27.652 M344.824,27.636 C333.741,29.065 326.017,35.313 323.851,44.600 C322.495,50.409 322.329,51.539 322.495,53.802 C323.479,67.233 328.904,74.596 340.800,78.650 C349.899,81.751 363.813,77.188 368.975,69.412 C380.810,51.581 372.007,30.046 351.965,27.803 C350.774,27.669 349.260,27.503 348.600,27.432 C347.940,27.362 346.241,27.453 344.824,27.636 M148.897,28.571 C132.685,32.872 125.382,52.567 134.416,67.618 C145.445,85.991 176.464,81.982 181.163,61.575 C186.298,39.273 170.287,22.896 148.897,28.571 M244.803,28.597 C234.906,31.214 230.199,36.208 226.634,47.875 C224.377,55.263 228.036,66.766 234.510,72.630 C249.039,85.793 272.522,79.362 276.978,61.000 C277.352,59.460 277.869,57.480 278.129,56.600 C278.721,54.588 278.703,51.363 278.086,49.348 C277.826,48.496 277.138,46.180 276.558,44.200 C272.786,31.334 259.375,24.744 244.803,28.597 M53.225,124.222 C46.139,125.759 39.224,131.977 36.662,139.118 C35.517,142.308 35.411,155.393 36.502,158.781 C40.367,170.779 53.611,177.279 68.000,174.240 C92.821,168.997 92.979,129.430 68.200,124.204 C64.687,123.464 56.679,123.473 53.225,124.222 M148.800,124.225 C125.881,129.175 124.350,166.471 146.771,173.654 C161.977,178.525 178.291,170.632 181.356,156.921 C186.222,135.156 170.641,119.508 148.800,124.225 M244.852,124.193 C232.100,127.077 222.920,142.859 226.863,155.116 C231.198,168.588 238.018,174.258 250.425,174.703 C265.902,175.259 274.371,168.925 277.775,154.247 C278.860,149.566 278.596,146.566 276.464,139.380 C272.990,127.674 259.058,120.980 244.852,124.193 M342.000,123.859 C333.010,125.661 326.035,132.143 323.741,140.829 C322.062,147.182 322.976,157.352 325.709,162.748 C332.643,176.434 355.482,179.353 366.800,168.000 C372.456,162.326 376.253,149.718 374.051,143.919 C373.859,143.413 373.485,142.280 373.218,141.400 C370.815,133.454 365.073,127.180 358.000,124.774 C355.425,123.898 344.830,123.292 342.000,123.859 M54.810,219.399 C39.895,222.783 32.198,237.141 36.424,253.694 C41.851,274.948 74.393,277.061 84.256,256.800 C93.851,237.088 76.119,214.565 54.810,219.399 M152.000,219.076 C131.278,222.545 123.325,248.564 138.298,263.902 C145.587,271.367 160.585,272.921 170.942,267.284 C183.934,260.213 186.124,236.348 174.746,225.814 C169.178,220.659 159.562,217.811 152.000,219.076 M246.483,219.410 C233.337,222.265 222.773,238.383 226.454,249.972 C231.215,264.961 238.347,270.584 252.600,270.583 C265.080,270.583 273.387,264.937 276.558,254.301 C278.569,247.557 278.926,245.467 278.427,243.348 C278.175,242.276 277.693,240.159 277.356,238.643 C274.237,224.613 260.870,216.286 246.483,219.410 M342.042,219.393 C326.286,222.970 318.725,239.142 324.646,256.600 C329.752,271.655 354.702,275.816 366.818,263.634 C385.278,245.072 367.642,213.580 342.042,219.393 M53.308,316.193 C39.246,319.828 32.808,332.225 36.241,349.057 C40.299,368.957 71.023,373.821 82.093,356.316 C95.807,334.630 78.001,309.811 53.308,316.193 M151.731,315.591 C141.066,317.868 133.815,324.295 131.437,333.579 C130.682,336.524 130.564,345.396 131.251,347.572 C132.555,351.706 133.024,352.824 134.490,355.299 C144.195,371.670 170.952,370.720 179.753,353.691 C182.977,347.454 182.797,335.084 179.377,327.861 C175.307,319.266 162.060,313.387 151.731,315.591 M245.200,316.218 C229.106,320.361 221.378,337.665 228.927,352.654 C240.001,374.642 272.383,371.000 277.422,347.200 C277.724,345.770 278.174,343.697 278.421,342.593 C278.885,340.518 278.711,339.496 276.592,331.825 C273.142,319.336 259.477,312.542 245.200,316.218 M340.916,316.191 C325.543,320.165 319.592,332.653 324.267,351.135 C328.717,368.731 357.283,372.806 368.681,357.471 C384.223,336.562 366.137,309.673 340.916,316.191 M54.539,411.610 C46.340,413.091 38.533,420.043 36.360,427.800 C35.419,431.160 35.622,443.980 36.663,446.882 C40.972,458.903 54.261,465.083 68.721,461.790 C90.704,456.785 93.201,421.826 72.200,413.099 C68.416,411.527 59.269,410.756 54.539,411.610 M150.555,411.573 C141.138,413.076 133.339,420.558 131.348,430.000 C130.709,433.029 130.620,441.012 131.200,443.254 C131.420,444.104 131.790,445.531 132.023,446.424 C133.703,452.868 141.477,460.144 148.437,461.784 C163.964,465.444 178.328,457.910 181.350,444.521 C186.085,423.544 171.737,408.193 150.555,411.573 M247.400,411.422 C246.960,411.524 245.610,411.805 244.400,412.046 C232.252,414.464 222.859,431.147 226.955,443.030 C230.234,452.545 233.214,456.609 239.241,459.789 C245.640,463.164 258.427,463.447 264.503,460.347 C284.102,450.349 282.213,418.819 261.629,412.364 C259.076,411.563 249.518,410.931 247.400,411.422 M341.351,411.789 C332.870,413.329 325.235,420.873 323.528,429.400 C320.313,445.458 328.031,459.551 341.400,462.038 C359.757,465.453 373.669,454.990 374.290,437.300 C374.906,419.760 360.197,408.368 341.351,411.789 M56.451,506.863 C48.787,507.960 40.939,513.375 37.700,519.800 C34.841,525.472 34.873,538.857 37.763,545.772 C43.992,560.682 70.248,562.921 81.103,549.469 C96.213,530.745 80.411,503.436 56.451,506.863 M152.600,506.816 C125.396,510.381 122.567,550.705 149.050,557.423 C156.083,559.207 163.691,558.502 169.889,555.492 C185.470,547.926 186.586,520.996 171.725,511.195 C165.947,507.385 159.507,505.911 152.600,506.816 M248.219,506.825 C237.596,508.460 229.931,515.720 226.644,527.262 C225.945,529.715 225.772,535.779 226.358,537.281 C226.555,537.787 226.953,539.010 227.242,540.000 C230.762,552.071 239.471,558.402 252.551,558.399 C264.595,558.396 273.166,552.717 276.320,542.650 C278.474,535.776 278.943,532.025 278.023,529.028 C277.815,528.353 277.338,526.540 276.961,525.000 C273.933,512.619 261.531,504.777 248.219,506.825 M344.400,506.778 C334.462,508.204 326.126,514.941 324.080,523.200 C318.957,543.878 328.900,558.534 348.000,558.458 C363.619,558.396 374.400,547.780 374.400,532.460 C374.400,526.367 370.873,517.639 367.043,514.255 C360.197,508.207 352.395,505.631 344.400,506.778 " id="path0" fill-rule="evenodd" stroke="none" fill="#06dd09"></path><path id="path1" d="" stroke="none" fill="#08ecac" fill-rule="evenodd"></path><path id="path2" d="" stroke="none" fill="#08ecac" fill-rule="evenodd"></path><path id="path3" d="" stroke="none" fill="#08ecac" fill-rule="evenodd"></path><path id="path4" d="" stroke="none" fill="#08ecac" fill-rule="evenodd"></path></g></svg>